<svg xmlns="http://www.w3.org/2000/svg" xmlns:xlink="http://www.w3.org/1999/xlink" preserveAspectRatio="xMidYMid" width="54.125" height="54.12" viewBox="0 0 54.125 54.12">
  <defs>
    <style>
      .cls-1 {
        fill: #262626;
        fill-rule: evenodd;
      }
    </style>
  </defs>
  <path d="M53.156,15.017 C50.185,15.569 46.843,16.949 45.271,17.651 C44.767,16.871 44.185,16.151 43.513,15.479 L38.640,10.608 C37.968,9.942 37.242,9.354 36.468,8.856 C37.170,7.278 38.550,3.937 39.102,0.967 C39.294,-0.065 40.632,-0.359 41.250,0.487 C42.306,1.938 43.351,3.805 43.039,5.202 L50.263,2.305 C51.241,1.909 52.220,2.887 51.824,3.864 L48.919,11.081 C50.317,10.770 52.184,11.814 53.636,12.869 C54.488,13.487 54.188,14.825 53.156,15.017 ZM41.886,17.105 C46.387,21.610 45.925,28.846 41.328,32.817 L31.049,26.932 L36.210,35.943 L17.404,46.508 L10.659,42.872 L13.731,48.571 L4.580,53.713 C4.070,53.995 3.554,54.121 3.062,54.121 C0.914,54.121 -0.832,51.733 0.404,49.531 L12.177,28.588 L20.524,33.651 L14.716,24.076 L20.068,14.567 C22.078,10.991 25.739,9.090 29.441,9.090 C32.153,9.090 34.890,10.109 37.014,12.234 L41.886,17.105 Z" class="cls-1"/>
</svg>
