<svg xmlns="http://www.w3.org/2000/svg" xmlns:xlink="http://www.w3.org/1999/xlink" preserveAspectRatio="xMidYMid" width="46.688" height="42.78" viewBox="0 0 46.688 42.78">
  <defs>
    <style>
      .cls-1 {
        fill: #262626;
        fill-rule: evenodd;
      }
    </style>
  </defs>
  <path d="M44.267,32.231 L18.080,32.231 C15.037,32.231 12.365,30.284 11.430,27.386 L4.222,5.034 C4.190,4.936 4.100,4.870 3.997,4.870 L2.421,4.870 C1.080,4.870 -0.006,3.784 -0.006,2.442 C-0.006,1.101 1.080,0.013 2.421,0.013 L3.997,0.013 C6.215,0.013 8.162,1.433 8.842,3.545 L16.051,25.897 C16.335,26.779 17.152,27.374 18.080,27.374 L44.267,27.374 C45.608,27.374 46.694,28.461 46.694,29.802 C46.694,31.144 45.608,32.231 44.267,32.231 ZM41.646,23.149 C41.467,23.894 40.800,24.420 40.034,24.420 L19.731,24.420 C19.010,24.420 18.372,23.954 18.152,23.266 L13.161,7.659 C12.902,6.849 13.045,5.964 13.546,5.274 C14.048,4.588 14.848,4.181 15.699,4.181 L42.816,4.181 C43.632,4.181 44.403,4.556 44.908,5.196 C45.413,5.837 45.597,6.675 45.407,7.469 L41.646,23.149 ZM19.801,35.027 C21.938,35.027 23.672,36.761 23.672,38.900 C23.672,41.040 21.938,42.772 19.801,42.772 C17.663,42.772 15.930,41.040 15.930,38.900 C15.930,36.761 17.663,35.027 19.801,35.027 ZM40.130,35.027 C42.268,35.027 44.001,36.761 44.001,38.900 C44.001,41.040 42.268,42.772 40.130,42.772 C37.993,42.772 36.260,41.040 36.260,38.900 C36.260,36.761 37.993,35.027 40.130,35.027 Z" class="cls-1"/>
</svg>
