<svg xmlns="http://www.w3.org/2000/svg" xmlns:xlink="http://www.w3.org/1999/xlink" preserveAspectRatio="xMidYMid" width="53" height="53.16" viewBox="0 0 53 53.16">
  <defs>
    <style>
      .cls-1 {
        fill: #262626;
        fill-rule: evenodd;
      }
    </style>
  </defs>
  <path d="M40.425,37.086 C41.066,37.131 41.709,37.177 42.342,37.202 C40.769,39.568 38.644,41.622 36.019,43.140 C33.393,44.655 30.557,45.480 27.731,45.658 C28.030,45.077 28.329,44.484 28.617,43.881 C30.115,43.696 31.601,43.309 33.044,42.714 C33.061,42.681 33.076,42.656 33.083,42.628 C33.134,42.447 33.296,42.262 33.296,42.262 L33.212,42.051 L33.397,41.788 C33.397,41.788 33.606,41.447 33.737,41.344 C33.868,41.241 34.966,40.291 35.205,40.112 C35.412,39.948 36.323,39.263 36.722,38.939 C36.776,38.895 36.820,38.853 36.857,38.826 C37.119,38.590 37.621,37.958 37.800,37.667 C37.889,37.534 38.026,37.197 38.154,36.874 L38.151,36.874 C38.914,36.958 39.674,37.030 40.425,37.086 ZM21.813,38.378 C21.741,38.367 21.834,38.417 21.895,38.449 C21.875,38.410 21.850,38.384 21.813,38.378 ZM36.100,37.038 C36.290,37.061 36.540,37.043 36.727,37.038 L36.783,37.038 C36.967,37.038 37.124,36.958 37.412,36.800 L37.434,36.788 L37.434,36.788 C37.202,36.758 36.963,36.729 36.731,36.696 C36.499,36.661 36.265,36.633 36.032,36.595 C36.197,36.724 36.309,36.830 36.262,36.849 C36.127,36.905 35.892,37.011 36.100,37.038 ZM21.896,38.449 C21.898,38.451 21.899,38.453 21.899,38.456 C21.966,38.486 21.939,38.473 21.896,38.449 ZM27.815,24.296 C27.815,24.296 27.827,24.311 27.843,24.328 C27.859,24.299 27.815,24.296 27.815,24.296 ZM34.137,28.473 L34.097,28.473 L34.061,28.623 C33.894,29.235 33.726,29.857 33.548,30.476 C33.692,30.479 33.826,30.492 33.826,30.492 C33.826,30.492 33.982,30.422 34.028,30.219 C34.069,30.017 34.187,29.790 34.187,29.790 C34.187,29.790 34.228,29.798 34.299,29.813 C34.343,29.731 34.396,29.614 34.396,29.472 C34.396,29.190 34.271,29.128 34.271,28.973 C34.271,28.817 34.332,28.442 34.332,28.442 L34.137,28.473 ZM33.302,31.308 L33.218,31.592 L33.347,31.569 C33.347,31.569 33.380,31.658 33.427,31.785 C33.458,31.716 33.477,31.663 33.477,31.663 C33.477,31.663 33.477,31.574 33.433,31.392 C33.427,31.363 33.368,31.333 33.302,31.308 ZM34.941,25.292 L34.901,25.271 C34.809,25.649 34.723,26.026 34.627,26.399 C34.692,26.439 34.645,26.452 34.910,26.463 C35.287,26.483 35.025,26.483 35.306,26.483 C35.588,26.483 35.633,26.516 35.683,26.397 C35.731,26.282 35.748,26.463 35.748,26.151 C35.748,25.836 35.600,25.707 35.502,25.624 C35.402,25.544 35.237,25.423 34.941,25.292 ZM52.934,33.694 C52.090,36.849 42.915,37.227 31.274,34.896 C27.463,46.169 22.550,53.946 19.403,53.103 C17.418,52.569 16.535,48.712 16.735,43.009 C16.803,43.045 16.872,43.087 16.937,43.121 C14.138,41.500 11.713,39.151 9.980,36.146 C8.466,33.512 7.646,30.669 7.466,27.833 C8.019,28.122 8.581,28.398 9.152,28.676 C11.191,29.654 13.330,30.548 15.500,31.347 L15.494,31.347 L15.500,31.461 L15.188,32.016 L14.899,32.197 L14.977,32.328 L15.029,32.591 L14.870,32.591 C14.870,32.591 14.870,32.956 14.870,33.169 C14.870,33.379 15.291,33.458 15.291,33.458 L15.160,33.540 C15.160,33.540 15.188,33.668 15.318,33.881 C15.449,34.093 15.553,34.278 15.607,34.457 C15.660,34.641 15.738,35.162 15.738,35.162 C15.738,35.162 16.081,35.740 16.237,35.982 C16.395,36.215 16.710,36.533 16.841,36.796 C16.972,37.059 17.260,36.927 17.809,37.059 C18.361,37.189 18.593,37.374 18.593,37.374 C18.593,37.374 18.884,37.608 19.068,37.715 C19.249,37.817 19.433,37.817 19.931,37.817 C20.408,37.817 20.097,37.845 20.679,37.936 L20.773,37.948 C21.472,38.051 20.919,38.001 21.585,38.307 L21.612,38.320 C21.775,38.392 21.861,38.426 21.909,38.451 C21.960,38.573 21.937,38.801 21.955,38.895 C21.982,39.026 22.166,38.870 22.297,38.870 C22.397,38.870 22.421,38.948 22.534,39.020 C22.568,39.043 22.609,39.060 22.662,39.079 C22.896,39.157 22.949,39.001 22.949,39.001 L23.213,39.315 L23.423,39.604 L23.213,40.105 L23.030,40.288 C23.030,40.288 23.059,40.052 23.030,39.863 C23.002,39.682 22.847,39.948 22.847,39.948 L22.689,40.446 L23.263,41.001 L23.437,41.157 L23.813,41.502 L23.838,41.569 L24.052,42.186 L24.023,42.395 L24.154,42.741 C24.154,42.741 23.988,42.812 23.838,42.845 C23.780,42.859 23.728,42.871 23.682,42.871 C23.605,42.871 23.513,42.962 23.437,43.054 C23.354,43.153 23.289,43.264 23.289,43.264 C23.289,43.264 23.349,43.381 23.437,43.503 C23.493,43.581 23.559,43.659 23.630,43.710 C23.667,43.740 23.700,43.753 23.732,43.781 C23.761,43.784 23.788,43.792 23.817,43.795 C23.810,43.809 23.804,43.818 23.798,43.828 L23.798,43.828 L23.801,43.828 L23.723,43.962 L23.723,43.962 C23.495,44.356 23.209,44.841 22.879,45.355 C20.961,44.983 19.104,44.315 17.378,43.375 C17.381,43.376 17.384,43.378 17.388,43.379 C17.439,46.824 18.082,49.057 19.340,49.395 C21.723,50.035 25.588,43.671 28.778,34.365 C27.436,34.065 26.074,33.728 24.691,33.353 C10.088,29.429 -0.944,23.221 0.054,19.488 C0.587,17.498 4.428,16.614 10.116,16.814 C10.050,16.925 9.988,17.043 9.926,17.154 C11.545,14.290 13.919,11.804 16.968,10.041 C20.003,8.281 23.321,7.464 26.593,7.483 C26.478,7.481 26.360,7.477 26.241,7.478 C28.912,2.444 31.601,-0.455 33.583,0.078 C37.306,1.079 37.153,13.765 33.240,28.403 C32.875,29.790 32.480,31.144 32.076,32.458 C41.711,34.343 49.134,34.170 49.783,31.778 C50.119,30.518 48.510,28.845 45.560,27.079 C45.560,27.070 45.560,27.062 45.560,27.056 C45.510,29.026 45.158,30.978 44.520,32.831 C43.910,32.864 43.351,32.866 42.898,32.866 L42.898,32.866 C42.529,32.866 42.239,32.860 42.067,32.853 C41.572,32.835 41.076,32.813 40.576,32.775 C40.664,32.467 40.743,32.241 40.756,32.114 C40.782,31.953 40.871,31.707 40.871,31.707 L40.285,31.572 L40.217,31.188 L39.970,31.144 L39.743,31.577 C39.743,31.577 39.565,31.847 39.360,31.956 C39.160,32.067 38.889,32.091 38.889,32.091 L38.954,31.780 C38.846,31.733 38.618,31.822 38.618,31.822 L38.593,31.527 C38.593,31.527 38.459,31.232 38.347,31.213 C38.235,31.188 38.052,30.941 38.052,30.941 C38.052,30.941 37.985,30.849 37.918,30.668 C37.915,30.663 37.908,30.657 37.898,30.649 L37.931,30.494 C37.931,30.494 38.144,30.257 38.320,30.048 C38.496,29.838 38.556,30.257 38.738,30.410 C38.919,30.560 38.858,30.796 38.858,30.796 C38.858,30.796 38.976,30.857 39.126,30.857 C39.279,30.857 39.336,30.975 39.336,30.975 L39.637,31.094 L39.936,30.763 C39.936,30.763 39.994,30.554 40.204,30.554 C40.413,30.554 40.237,30.822 40.237,30.975 C40.237,31.126 40.386,30.975 40.802,30.796 C41.220,30.619 41.038,30.646 41.429,30.435 C41.818,30.226 41.609,30.285 41.756,30.166 C41.910,30.048 42.027,29.928 42.027,29.928 L42.354,30.141 L42.716,30.079 L43.077,29.868 L43.077,30.141 C43.077,30.141 42.839,30.441 42.985,30.646 C43.136,30.857 43.163,30.796 43.077,31.066 C42.985,31.336 43.044,31.336 43.077,31.488 C43.100,31.599 43.107,31.613 43.108,31.679 C44.467,27.220 44.054,22.234 41.547,17.880 C40.347,15.790 38.778,14.048 36.970,12.682 C37.023,12.014 37.063,11.351 37.091,10.692 C39.450,12.268 41.497,14.401 43.011,17.034 C44.750,20.051 45.568,23.344 45.563,26.596 C45.563,26.508 45.565,26.423 45.565,26.334 C50.577,29.007 53.466,31.700 52.934,33.694 ZM30.088,12.911 C30.088,12.911 30.277,12.805 30.370,12.762 C30.468,12.722 30.370,12.711 30.277,12.644 C30.183,12.577 30.062,12.696 30.062,12.696 C30.062,12.696 30.009,12.750 29.956,12.869 C29.951,12.881 29.946,12.890 29.942,12.896 C29.890,12.959 29.834,12.796 29.822,12.711 C29.808,12.615 29.460,12.681 29.473,12.681 C29.487,12.681 29.554,12.855 29.554,12.855 C29.554,12.855 29.582,13.018 29.582,13.084 C29.582,13.152 29.582,13.270 29.635,13.352 C29.688,13.434 29.834,13.555 29.834,13.555 L29.942,13.487 L29.980,13.459 L30.143,13.190 L30.277,13.071 L30.088,12.911 ZM27.944,11.721 C27.944,11.721 27.966,11.530 28.071,11.555 C28.176,11.573 28.281,11.301 28.281,11.301 C28.281,11.301 28.195,11.134 28.092,11.134 C27.986,11.134 27.756,11.156 27.756,11.156 L27.692,11.028 C27.692,11.028 27.566,11.007 27.397,11.070 C27.228,11.134 27.185,10.985 27.185,10.985 L27.164,10.732 L26.931,10.796 L26.763,10.648 C26.763,10.648 26.701,10.521 26.805,10.521 C26.908,10.521 27.056,10.543 27.056,10.543 L27.267,10.395 L27.183,10.228 L27.329,10.061 C27.329,10.061 27.036,9.910 26.971,10.021 C26.908,10.123 26.675,10.209 26.675,10.209 C26.675,10.209 26.698,10.145 26.572,9.976 C26.448,9.806 26.634,9.723 26.360,9.785 C26.197,9.822 26.068,9.903 25.990,9.963 C25.931,10.004 25.897,10.038 25.897,10.038 C25.897,10.038 25.602,10.100 25.585,10.206 C25.561,10.308 25.942,10.374 25.942,10.374 C25.942,10.374 25.963,10.344 25.990,10.318 C26.045,10.257 26.146,10.174 26.217,10.248 C26.320,10.352 26.404,10.481 26.404,10.481 L26.005,10.691 L25.990,10.677 L25.793,10.521 L25.395,10.521 L25.206,10.605 L24.827,10.648 C24.827,10.648 24.891,10.836 24.891,10.943 C24.891,11.051 24.723,11.156 24.723,11.156 L24.498,11.135 L24.469,11.134 L24.236,11.301 C24.236,11.301 23.984,11.323 23.879,11.404 C23.862,11.420 23.844,11.430 23.825,11.432 C23.728,11.458 23.627,11.393 23.627,11.532 C23.627,11.700 23.647,11.785 23.524,11.807 C23.495,11.814 23.461,11.820 23.425,11.826 C23.291,11.855 23.125,11.892 23.125,11.892 C23.125,11.892 22.997,11.954 22.892,12.060 C22.790,12.162 22.555,12.228 22.555,12.228 L22.521,12.218 L22.135,12.141 L21.589,12.375 L21.574,12.408 L21.462,12.672 L21.103,12.714 C21.103,12.714 20.807,12.861 20.788,12.965 C20.778,13.018 20.722,13.067 20.671,13.103 C20.624,13.136 20.578,13.156 20.578,13.156 C20.578,13.156 20.368,13.240 20.262,13.322 C20.158,13.405 20.030,13.572 20.030,13.572 L19.943,13.763 L20.093,13.976 L19.756,14.016 L19.796,14.184 C19.964,14.352 20.071,14.436 20.175,14.352 C20.278,14.265 20.216,14.201 20.341,14.161 C20.415,14.134 20.549,14.090 20.665,14.048 C20.749,14.018 20.825,13.990 20.867,13.971 C20.971,13.931 21.141,13.783 21.266,13.783 C21.394,13.783 21.518,13.762 21.518,13.762 L21.567,13.722 L21.854,13.488 L22.191,13.638 L22.466,13.597 C22.466,13.597 22.466,13.666 22.515,13.719 C22.534,13.737 22.558,13.752 22.594,13.763 C22.717,13.805 22.907,13.805 22.907,13.805 C22.907,13.805 23.011,13.656 23.160,13.656 L23.420,13.656 L23.536,13.656 L23.579,13.467 L23.817,13.578 L23.850,13.594 L24.040,13.741 C24.040,13.741 23.956,13.763 24.166,13.847 C24.294,13.896 24.413,13.880 24.489,13.856 C24.535,13.841 24.567,13.824 24.567,13.824 L24.926,13.908 C24.926,13.908 24.948,13.571 24.841,13.571 C24.733,13.571 24.527,13.467 24.527,13.467 L24.758,13.383 L25.010,13.341 L25.074,13.616 L25.473,13.488 L25.410,13.256 L25.431,12.896 L25.809,12.959 L25.832,13.211 C25.832,13.211 25.905,13.245 25.987,13.262 C26.076,13.287 26.168,13.290 26.168,13.211 C26.168,13.063 26.084,12.959 26.189,12.959 C26.294,12.959 26.506,12.896 26.506,12.896 L26.608,12.746 L26.757,12.408 L26.923,12.663 L27.156,12.514 L27.113,12.301 L27.617,12.068 C27.617,12.068 27.915,12.026 28.043,12.026 C28.166,12.026 28.208,11.988 28.208,11.988 C28.208,11.988 28.292,11.819 28.166,11.819 C28.046,11.823 27.944,11.721 27.944,11.721 ZM22.915,19.886 L22.705,19.988 L23.190,20.222 L23.428,20.234 L23.606,20.245 C23.606,20.245 23.734,20.031 23.757,19.822 C23.766,19.723 23.790,19.682 23.828,19.651 C23.871,19.618 23.936,19.595 24.029,19.526 C24.195,19.401 24.157,19.358 24.115,19.231 C24.081,19.135 23.915,19.148 23.828,19.160 C23.796,19.163 23.777,19.166 23.777,19.166 L23.428,19.340 L23.397,19.357 L23.230,19.144 L22.997,19.208 L22.766,19.441 C22.743,19.419 22.915,19.464 22.915,19.464 C22.915,19.464 22.976,19.441 23.147,19.464 C23.314,19.486 23.105,19.631 23.105,19.631 L22.769,19.716 L22.915,19.886 ZM23.716,14.950 L23.428,14.969 L23.420,14.969 C23.420,14.969 23.364,15.270 23.428,15.448 C23.431,15.459 23.436,15.468 23.440,15.480 C23.501,15.599 23.624,15.720 23.828,15.749 C23.909,15.761 24.002,15.758 24.115,15.732 C24.302,15.692 24.359,15.680 24.370,15.680 L24.345,15.689 C24.345,15.689 24.381,15.680 24.370,15.680 L24.500,15.630 L24.664,15.564 C24.664,15.564 24.935,15.398 24.935,15.249 C24.935,15.098 24.702,15.145 24.514,15.145 L24.500,15.145 C24.327,15.143 24.342,15.118 24.262,14.912 C24.177,14.699 24.177,15.036 24.177,15.036 C24.177,15.036 24.093,15.017 24.011,14.827 C23.925,14.636 23.906,14.489 23.906,14.489 L23.831,14.528 L23.594,14.656 L23.656,14.783 L23.716,14.950 ZM23.504,21.002 C23.504,21.002 23.589,21.106 23.716,21.279 C23.769,21.351 23.804,21.327 23.828,21.279 C23.862,21.214 23.886,21.110 23.944,21.110 C24.048,21.110 23.967,21.279 24.093,21.258 C24.219,21.237 24.492,21.236 24.492,21.236 L24.500,21.245 L24.681,21.448 C24.681,21.448 24.892,21.343 24.913,21.236 C24.935,21.132 24.935,21.132 25.103,21.132 C25.270,21.132 25.208,21.110 25.419,20.941 C25.629,20.776 25.355,20.628 25.186,20.541 C25.017,20.457 25.162,20.309 25.162,20.309 L25.186,20.011 C25.186,20.011 25.186,19.909 25.162,19.758 C25.141,19.611 25.099,19.505 25.078,19.358 C25.057,19.211 24.911,19.255 24.911,19.255 L24.911,19.064 C24.911,19.064 25.226,19.064 25.332,19.022 C25.436,18.982 25.332,18.769 25.332,18.769 C25.332,18.769 25.082,18.667 24.892,18.603 C24.702,18.541 24.828,18.499 25.144,18.477 C25.457,18.456 25.186,18.309 25.186,18.309 L24.934,18.162 C24.934,18.162 24.807,18.330 24.597,18.415 C24.551,18.433 24.519,18.452 24.498,18.473 C24.423,18.546 24.472,18.634 24.407,18.731 L24.407,18.897 L24.498,19.054 L24.554,19.152 C24.554,19.152 24.535,19.239 24.498,19.331 C24.479,19.378 24.458,19.427 24.428,19.468 C24.343,19.595 24.469,19.744 24.469,19.744 C24.469,19.744 24.469,20.017 24.428,20.168 C24.387,20.315 24.067,20.039 24.067,20.039 L24.005,20.399 L23.827,20.399 L23.713,20.399 L23.755,20.590 L23.827,20.645 L23.943,20.737 L24.067,20.927 L23.827,20.839 L23.713,20.801 L23.504,21.002 ZM20.203,11.489 L19.844,11.869 C19.844,11.869 20.158,11.932 20.266,11.909 C20.327,11.897 20.499,11.785 20.674,11.663 C20.802,11.575 20.930,11.489 21.025,11.426 C21.257,11.277 21.341,11.323 21.341,11.323 L21.426,11.489 L20.919,11.786 L21.510,11.701 L21.580,11.635 L21.807,11.426 L22.040,11.151 L22.397,11.173 L22.531,11.124 L22.837,11.007 C22.837,11.007 23.090,10.841 23.198,10.648 C23.279,10.499 23.335,10.584 23.436,10.607 C23.466,10.616 23.495,10.616 23.534,10.605 C23.700,10.566 23.619,10.416 23.619,10.268 C23.619,10.197 23.718,10.190 23.839,10.192 C23.961,10.195 24.102,10.206 24.168,10.161 C24.292,10.074 24.063,9.908 23.894,9.864 L23.839,9.851 C23.707,9.819 23.638,9.804 23.619,9.675 C23.606,9.598 23.528,9.574 23.439,9.578 C23.354,9.582 23.262,9.611 23.200,9.653 C23.075,9.739 22.823,9.757 22.904,9.590 C22.917,9.563 22.938,9.555 22.949,9.537 C22.297,9.675 21.645,9.851 20.998,10.067 C21.145,10.063 21.207,10.074 21.303,10.074 C21.429,10.074 21.176,10.224 21.176,10.224 C21.176,10.224 20.799,10.352 20.691,10.436 L20.679,10.448 C20.588,10.534 20.630,10.670 20.630,10.670 C20.630,10.670 20.650,10.670 20.679,10.670 C20.747,10.668 20.869,10.664 20.944,10.648 C21.047,10.624 21.134,10.584 21.405,10.414 C21.494,10.361 21.545,10.332 21.580,10.315 C21.660,10.282 21.663,10.300 21.762,10.245 C21.909,10.156 21.802,10.476 21.802,10.476 L22.201,10.327 L22.525,10.313 L22.643,10.306 L22.769,10.073 L22.525,10.021 L22.391,9.989 L22.518,9.862 L22.525,9.862 C22.583,9.862 22.949,9.864 23.064,9.886 C23.192,9.905 23.064,10.053 23.064,10.053 L23.024,10.219 L22.877,10.494 C22.877,10.494 22.687,10.517 22.540,10.517 L22.525,10.517 C22.381,10.526 22.225,10.685 22.225,10.685 L21.930,10.894 L21.577,10.894 L21.507,10.894 L21.443,11.127 L21.106,11.087 C21.106,11.087 21.067,10.982 21.044,10.835 C21.021,10.685 20.877,10.835 20.877,10.835 C20.877,10.835 20.817,11.084 20.674,11.193 C20.647,11.214 20.618,11.228 20.581,11.235 C20.373,11.277 20.203,11.489 20.203,11.489 ZM24.787,9.256 C24.606,9.273 24.426,9.290 24.247,9.312 C24.270,9.317 24.288,9.326 24.346,9.338 C24.471,9.359 24.367,9.400 24.367,9.504 C24.367,9.572 24.398,9.600 24.501,9.619 C24.554,9.628 24.626,9.638 24.728,9.653 C25.023,9.694 24.830,9.566 24.790,9.315 C24.787,9.293 24.784,9.272 24.787,9.256 ZM23.652,9.504 C23.652,9.504 23.675,9.461 23.692,9.397 C23.661,9.403 23.632,9.406 23.601,9.411 C23.644,9.448 23.652,9.504 23.652,9.504 ZM26.063,9.172 C26.040,9.222 26.023,9.275 26.030,9.338 C26.052,9.526 26.093,9.338 26.220,9.296 C26.296,9.268 26.314,9.240 26.328,9.171 C26.245,9.169 26.156,9.172 26.063,9.172 ZM13.731,14.761 L13.996,14.779 L14.332,14.568 L14.669,14.670 L14.479,14.758 C14.479,14.758 14.293,15.030 14.248,15.158 C14.205,15.283 14.752,15.261 14.752,15.261 C14.752,15.261 14.899,14.860 14.899,14.692 C14.899,14.526 15.340,14.417 15.340,14.417 L15.465,14.080 L15.678,14.230 C15.678,14.230 15.802,13.996 15.781,13.893 C15.757,13.787 15.381,13.765 15.381,13.765 L15.757,13.576 L16.136,13.681 L16.051,14.417 L16.429,14.417 L16.513,14.546 C16.513,14.546 15.988,14.839 15.882,14.839 C15.780,14.839 15.545,15.116 15.545,15.116 L15.336,15.350 C15.336,15.350 15.421,15.476 15.587,15.518 C15.752,15.558 15.752,15.665 15.752,15.665 C15.752,15.665 15.985,15.581 15.985,15.454 C15.985,15.328 15.900,15.288 15.900,15.288 C15.900,15.288 16.087,15.075 16.215,14.928 C16.339,14.779 17.013,14.485 17.140,14.336 C17.264,14.189 17.180,14.085 17.180,14.085 L17.496,13.894 C17.496,13.894 17.581,13.495 17.622,13.391 C17.662,13.287 18.106,13.074 18.421,12.842 C18.737,12.608 18.780,12.589 19.198,12.482 C19.621,12.376 19.326,12.331 19.302,12.205 C19.281,12.078 18.945,12.375 18.945,12.375 L18.441,12.225 C18.441,12.225 18.651,12.225 18.861,12.058 C19.074,11.892 19.029,12.017 19.176,11.954 C19.326,11.892 19.281,11.826 19.281,11.826 L19.513,11.826 C19.513,11.826 19.703,11.639 19.809,11.468 C19.913,11.301 20.146,10.982 20.146,10.982 C20.146,10.982 19.621,11.280 19.514,11.320 C19.412,11.359 19.241,11.280 19.115,11.280 C18.987,11.280 18.801,11.489 18.589,11.573 C18.378,11.660 18.147,11.786 18.147,11.786 L17.834,11.724 L17.582,11.826 L16.972,12.080 C16.972,12.080 17.075,11.996 17.331,11.847 C17.584,11.697 17.834,11.550 17.834,11.550 L18.235,11.447 L18.268,11.241 C18.107,11.327 17.948,11.407 17.785,11.500 C16.249,12.402 14.888,13.505 13.731,14.761 ZM29.566,31.930 C29.990,30.579 30.398,29.181 30.781,27.742 C34.190,15.001 34.583,4.035 31.666,3.252 C30.409,2.914 28.742,4.525 26.979,7.483 C26.958,7.483 26.943,7.483 26.923,7.483 C28.899,7.529 30.856,7.882 32.716,8.526 C32.751,9.136 32.754,9.699 32.752,10.153 C32.754,10.153 32.754,10.153 32.754,10.153 C32.752,10.521 32.748,10.815 32.741,10.987 C32.684,12.588 32.539,14.227 32.328,15.878 C32.249,15.851 32.162,15.831 32.082,15.825 C31.856,15.809 31.850,15.822 31.853,15.825 C31.850,15.822 31.663,15.665 31.595,15.545 C31.523,15.425 31.386,15.335 31.124,15.248 C30.862,15.158 30.881,15.352 30.881,15.352 C30.881,15.352 30.638,15.524 30.323,15.492 C30.023,15.457 29.948,15.794 29.943,15.820 L29.942,15.820 L29.716,16.014 C29.716,16.014 29.594,16.223 29.454,16.223 C29.314,16.223 29.211,16.257 29.211,16.257 C29.211,16.257 29.142,16.518 29.142,16.657 C29.142,16.797 29.002,16.817 29.002,16.817 C29.002,16.817 28.828,16.850 28.706,16.904 C28.585,16.954 28.463,17.026 28.340,17.095 C28.219,17.164 28.270,17.217 28.027,17.357 C27.784,17.495 27.697,17.548 27.697,17.548 L27.366,17.617 L27.538,17.791 L27.277,17.844 C27.277,17.844 27.258,18.000 27.293,18.122 C27.326,18.244 27.594,18.262 27.594,18.262 C27.594,18.262 27.419,18.402 27.209,18.491 C26.999,18.580 26.999,18.612 27.017,18.700 C27.035,18.789 27.156,18.980 27.503,19.067 C27.855,19.155 27.608,19.050 27.764,18.964 C27.924,18.875 28.094,18.824 28.094,18.824 C28.094,18.824 28.307,19.175 28.307,19.329 C28.307,19.485 28.254,19.782 28.273,19.889 C28.290,19.993 28.463,19.854 28.463,19.854 L28.307,20.027 C28.307,20.027 28.340,20.340 28.340,20.430 C28.340,20.518 28.650,20.463 28.650,20.378 C28.650,20.292 28.822,20.149 29.083,20.134 C29.343,20.116 29.311,20.083 29.311,19.873 C29.311,19.663 29.362,19.384 29.362,19.384 L29.660,19.296 C29.660,19.296 29.829,19.168 29.942,19.062 C29.971,19.034 29.993,19.006 30.010,18.982 C30.046,18.926 30.004,18.870 29.942,18.816 C29.889,18.772 29.823,18.726 29.781,18.688 C29.692,18.600 29.660,18.322 29.660,18.146 C29.660,17.973 29.660,18.042 29.680,17.919 C29.695,17.808 29.826,17.799 29.942,17.771 C29.953,17.768 29.963,17.765 29.974,17.762 C30.096,17.727 30.252,17.519 30.478,17.412 C30.704,17.304 30.356,17.290 30.356,17.290 C30.356,17.290 30.392,17.099 30.426,16.940 C30.460,16.782 30.912,16.993 30.912,16.993 L31.087,17.200 L30.878,17.359 L30.638,17.722 L30.291,18.177 L30.570,18.907 C30.570,18.907 30.811,19.028 30.968,19.009 C31.130,18.994 31.302,18.907 31.403,18.819 C31.448,18.784 31.669,18.722 31.912,18.669 L31.831,19.157 C31.752,19.189 31.663,19.123 31.465,19.123 C31.193,19.123 31.121,19.248 30.875,19.272 C30.627,19.299 30.775,19.470 30.775,19.593 C30.775,19.716 31.121,19.865 31.121,19.865 L30.850,20.038 C30.850,20.038 30.725,19.766 30.482,19.792 C30.239,19.817 30.334,20.137 30.183,20.260 C30.037,20.384 30.283,20.758 30.283,20.758 C30.283,20.758 30.105,20.779 29.943,20.870 C29.925,20.883 29.906,20.892 29.887,20.903 C29.716,21.025 29.666,20.929 29.666,20.929 C29.666,20.929 29.566,20.780 29.445,20.780 C29.320,20.780 29.144,20.977 29.021,21.025 C28.896,21.074 28.479,21.025 28.479,21.025 L28.206,20.727 L27.980,20.953 C27.980,20.953 27.784,20.903 27.659,20.753 C27.541,20.604 27.659,20.631 27.634,20.506 C27.611,20.384 27.561,20.384 27.561,20.384 L27.684,20.187 L28.005,19.988 C28.005,19.988 28.078,19.545 27.930,19.349 C27.781,19.149 27.781,19.545 27.781,19.545 L27.287,19.865 L27.313,20.534 L27.212,20.830 L27.020,20.783 L26.897,20.932 C26.897,20.932 26.773,20.857 26.579,20.783 C26.379,20.709 26.034,21.029 26.034,21.029 L25.990,21.139 L25.911,21.324 L25.640,21.274 L25.492,21.448 C25.492,21.448 25.320,21.448 25.194,21.448 C25.068,21.448 25.145,21.669 25.145,21.669 C25.145,21.669 25.060,21.768 24.964,21.805 L24.921,21.748 C24.777,21.729 24.740,21.748 24.653,21.820 C24.613,21.854 24.553,21.872 24.495,21.888 C24.425,21.904 24.364,21.911 24.364,21.911 L24.238,21.588 C24.238,21.588 24.148,21.423 24.061,21.553 C23.970,21.681 24.005,21.768 24.005,21.768 L24.042,21.988 L23.862,22.005 L23.827,21.994 L23.737,21.968 L23.426,21.780 L23.379,21.753 C23.379,21.753 23.164,21.716 23.203,21.858 C23.236,22.002 23.418,22.181 23.418,22.272 C23.418,22.284 23.423,22.290 23.429,22.296 C23.483,22.359 23.742,22.340 23.742,22.455 C23.742,22.581 23.577,22.725 23.577,22.725 C23.577,22.725 23.704,22.831 23.704,22.995 C23.704,23.157 23.667,23.390 23.630,23.496 C23.595,23.603 23.506,23.568 23.469,23.677 C23.460,23.705 23.442,23.734 23.426,23.764 C23.370,23.858 23.291,23.946 23.291,23.946 C23.291,23.946 23.021,24.018 22.930,23.981 C22.837,23.946 22.766,23.816 22.606,23.784 C22.569,23.775 22.540,23.775 22.518,23.778 C22.456,23.786 22.445,23.819 22.285,23.711 C22.067,23.566 21.998,23.513 21.853,23.459 C21.709,23.409 21.638,23.280 21.638,23.280 C21.638,23.280 21.609,23.263 21.572,23.244 C21.507,23.206 21.406,23.155 21.350,23.155 C21.259,23.155 21.117,23.318 21.117,23.318 C21.117,23.318 21.151,23.462 21.117,23.642 C21.084,23.821 21.151,23.912 21.046,23.984 C20.940,24.056 20.919,24.001 20.902,24.147 C20.883,24.291 20.974,24.219 20.831,24.363 C20.701,24.494 20.761,24.491 20.668,24.557 C20.656,24.563 20.644,24.573 20.633,24.581 C20.487,24.672 20.435,24.653 20.344,24.798 C20.253,24.942 20.219,25.100 20.219,25.230 C20.219,25.355 20.612,25.804 20.612,25.804 C20.612,25.804 20.639,25.811 20.668,25.820 C20.730,25.840 20.831,25.883 20.831,25.967 C20.831,26.095 20.683,26.148 20.831,26.239 C20.974,26.330 20.902,26.345 20.991,26.402 C21.035,26.428 21.304,26.487 21.572,26.543 C21.866,26.600 22.158,26.654 22.158,26.654 L22.356,26.510 L22.519,26.510 L22.697,26.510 L22.786,26.203 L23.056,26.186 L23.075,25.895 C23.075,25.895 23.040,25.607 23.128,25.607 C23.171,25.607 23.303,25.532 23.428,25.457 C23.552,25.380 23.667,25.300 23.667,25.300 C23.667,25.300 23.735,25.315 23.828,25.327 C23.965,25.349 24.151,25.363 24.206,25.318 C24.297,25.246 24.495,24.957 24.495,24.957 C24.495,24.957 24.454,24.726 24.500,24.628 C24.514,24.596 24.533,24.581 24.565,24.581 C24.708,24.581 25.052,24.600 25.159,24.707 C25.265,24.813 25.533,24.957 25.643,24.940 C25.738,24.923 25.885,24.828 25.993,24.754 L26.037,24.721 C26.076,24.693 26.183,24.619 26.299,24.531 C26.304,24.540 26.307,24.544 26.307,24.544 C26.307,24.544 26.558,24.578 26.629,24.707 C26.701,24.832 26.736,25.067 26.701,25.209 C26.666,25.350 26.934,25.478 27.024,25.585 C27.113,25.692 27.547,26.269 27.689,26.449 C27.832,26.626 28.120,26.951 28.120,26.951 L28.264,27.295 L27.961,27.511 C27.961,27.511 27.637,27.492 27.528,27.456 C27.421,27.420 27.332,27.528 27.332,27.528 C27.332,27.528 27.258,27.492 27.098,27.350 C26.936,27.205 27.046,27.368 26.847,27.477 C26.650,27.583 27.098,27.745 27.209,27.836 C27.313,27.930 27.457,28.086 27.528,28.181 C27.600,28.270 27.781,28.148 27.781,28.001 C27.781,27.856 27.799,27.732 27.799,27.732 L28.120,27.732 L28.320,27.499 L28.485,27.356 L28.557,27.155 L28.430,26.796 C28.430,26.796 28.650,26.724 28.731,26.724 C28.825,26.724 28.912,26.994 28.912,26.994 L29.005,27.030 C29.005,27.030 29.005,26.814 28.951,26.724 C28.898,26.632 28.610,26.419 28.610,26.419 C28.610,26.419 28.287,26.293 28.192,26.222 C28.103,26.150 27.893,25.773 27.781,25.576 C27.675,25.377 27.748,25.357 27.728,25.270 C27.709,25.179 27.528,25.071 27.457,24.949 C27.385,24.820 27.407,24.643 27.407,24.643 C27.407,24.643 27.569,24.535 27.748,24.427 C27.812,24.389 27.843,24.361 27.846,24.346 C27.918,24.420 28.105,24.636 28.105,24.767 C28.105,24.931 28.176,25.110 28.212,25.217 C28.248,25.323 28.463,25.414 28.751,25.468 C29.040,25.521 28.948,25.719 28.948,25.719 C28.948,25.719 29.217,26.043 29.251,26.260 C29.284,26.476 29.284,26.584 29.304,26.853 C29.323,27.122 29.451,27.155 29.536,27.414 C29.627,27.663 29.660,27.663 29.716,27.859 C29.741,27.952 29.758,28.042 29.790,28.132 C29.613,28.792 29.424,29.457 29.225,30.126 C29.058,30.282 28.937,30.852 28.937,30.852 C28.937,30.852 28.882,30.885 28.804,30.904 L28.806,30.904 L28.432,30.813 L28.432,30.813 C28.245,30.610 27.807,30.529 27.578,30.379 C27.343,30.219 27.343,29.879 27.158,29.721 C26.974,29.560 26.843,29.643 26.843,29.643 C26.843,29.643 26.320,29.537 26.213,29.406 C26.157,29.335 26.063,29.229 25.988,29.145 C25.923,29.068 25.870,29.014 25.870,29.014 C25.870,29.014 25.920,28.964 25.988,28.911 C26.066,28.844 26.165,28.767 26.237,28.751 C26.368,28.723 26.185,28.459 26.026,28.197 C25.868,27.934 26.446,27.855 26.419,27.724 C26.392,27.595 26.143,27.592 25.987,27.519 L25.973,27.514 C25.815,27.433 25.451,27.514 25.451,27.514 L24.951,27.411 C24.951,27.411 24.793,27.461 24.663,27.514 C24.616,27.533 24.556,27.524 24.493,27.492 C24.380,27.446 24.259,27.328 24.193,27.193 C24.122,27.049 23.973,27.079 23.825,27.069 C23.755,27.062 23.682,27.050 23.617,27.010 C23.545,26.967 23.483,26.951 23.425,26.954 C23.309,26.958 23.203,27.020 23.066,27.039 C22.895,27.061 22.667,27.117 22.516,27.136 C22.484,27.143 22.458,27.146 22.435,27.146 C22.304,27.146 22.145,27.249 21.963,27.356 C21.779,27.460 21.729,27.066 21.729,27.066 C21.729,27.066 21.673,27.066 21.569,27.047 C21.464,27.026 21.300,26.989 21.097,26.908 C20.704,26.748 20.886,26.513 20.886,26.513 C20.886,26.513 20.814,26.572 20.665,26.703 C20.615,26.745 20.561,26.797 20.496,26.855 C20.232,27.089 20.154,27.196 19.918,27.170 C19.685,27.141 19.552,27.249 19.394,27.328 C19.249,27.402 18.928,27.961 18.881,28.052 C15.755,26.975 12.665,25.712 9.873,24.227 C9.752,24.161 9.555,24.054 9.313,23.917 C9.313,23.917 9.313,23.917 9.313,23.918 C8.899,23.685 8.348,23.356 7.761,22.978 C8.136,21.031 8.812,19.151 9.768,17.405 C9.753,17.428 9.739,17.449 9.732,17.474 C6.296,17.524 4.069,18.169 3.733,19.427 C2.953,22.354 12.622,27.492 25.329,30.910 C26.773,31.279 28.186,31.622 29.566,31.930 ZM25.704,26.546 C25.617,26.580 25.617,26.777 25.617,26.777 C25.617,26.777 25.687,26.865 25.776,26.880 C25.833,26.893 25.900,26.887 25.994,26.866 C26.036,26.857 26.089,26.844 26.146,26.828 C26.319,26.777 26.215,26.687 26.250,26.565 C26.284,26.442 26.284,26.281 26.354,26.159 C26.424,26.037 26.212,25.947 26.212,25.947 C26.212,25.947 26.049,26.177 25.990,26.269 L25.984,26.281 C25.932,26.367 25.793,26.510 25.704,26.546 ZM25.993,25.604 C26.087,25.585 26.294,25.529 26.339,25.419 C26.389,25.278 26.372,25.350 26.427,25.190 C26.481,25.030 26.285,25.243 26.285,25.243 L26.055,25.383 L25.993,25.520 L25.952,25.613 C25.952,25.613 25.966,25.613 25.993,25.604 Z" class="cls-1"/>
</svg>
