<svg xmlns="http://www.w3.org/2000/svg" xmlns:xlink="http://www.w3.org/1999/xlink" preserveAspectRatio="xMidYMid" width="53.688" height="47.62" viewBox="0 0 53.688 47.62">
  <defs>
    <style>
      .cls-1 {
        fill: #262626;
        fill-rule: evenodd;
      }
    </style>
  </defs>
  <path d="M40.126,47.609 C37.959,43.900 34.761,42.213 30.549,42.232 C28.148,42.247 25.748,42.152 23.353,42.260 C21.243,42.355 19.280,42.040 17.433,41.001 C16.564,40.511 15.584,40.349 14.620,40.130 C12.288,39.602 10.013,38.899 7.678,38.322 C4.395,37.511 3.615,37.042 1.194,36.084 C0.798,35.927 0.315,36.054 0.124,35.565 C-0.055,35.094 -0.083,34.601 0.255,34.198 C0.841,33.502 1.434,33.167 2.487,33.228 C2.565,33.231 2.659,33.231 2.723,33.195 C4.616,32.126 4.613,32.851 6.537,33.009 L11.950,33.702 C12.904,33.631 20.060,35.366 20.471,34.546 C18.257,34.546 15.676,32.819 15.991,32.404 C16.555,31.659 17.342,31.327 18.290,31.330 C20.500,31.337 22.678,31.408 24.845,32.062 C26.469,32.555 28.140,32.474 29.830,31.797 C32.587,30.694 35.549,30.334 38.148,32.025 C41.351,34.111 44.390,36.460 46.714,39.612 C49.414,43.283 50.719,44.121 53.674,47.582 L40.126,47.609 ZM42.737,14.188 C42.345,14.599 41.936,15.152 41.496,15.761 C40.619,16.951 39.464,18.226 37.942,19.153 C37.187,19.612 36.370,20.022 35.512,20.300 C34.659,20.595 33.779,20.786 32.959,20.893 C32.224,20.981 30.546,21.204 30.027,21.180 C30.426,20.569 30.845,19.953 31.325,19.376 C31.641,18.950 32.015,18.579 32.363,18.196 C32.711,17.809 33.111,17.494 33.472,17.152 C33.855,16.843 34.248,16.573 34.616,16.302 C35.012,16.082 35.389,15.874 35.734,15.683 C36.106,15.546 36.448,15.417 36.752,15.306 C37.049,15.170 37.339,15.172 37.563,15.114 C38.024,15.031 38.288,14.983 38.288,14.983 C38.288,14.983 38.022,15.011 37.556,15.062 C37.326,15.102 37.029,15.081 36.720,15.195 C36.404,15.287 36.046,15.393 35.657,15.505 C35.288,15.675 34.890,15.858 34.464,16.053 C34.074,16.302 33.646,16.551 33.227,16.839 C32.837,17.163 32.397,17.461 32.009,17.830 C31.624,18.198 31.208,18.555 30.858,18.965 C30.436,19.416 30.041,19.881 29.666,20.351 C29.662,20.281 29.650,20.209 29.653,20.136 C29.646,19.447 29.782,18.585 30.078,17.675 C30.384,16.772 30.869,15.847 31.528,15.007 C32.176,14.147 33.021,13.405 33.974,12.799 C34.933,12.203 36.008,11.748 37.137,11.540 C38.257,11.312 39.419,11.317 40.442,11.546 C41.467,11.778 42.328,12.243 42.817,12.699 C43.069,12.903 43.224,13.160 43.323,13.304 C43.414,13.459 43.462,13.545 43.462,13.545 C43.462,13.545 43.386,13.601 43.246,13.704 C43.112,13.803 42.924,14.012 42.737,14.188 ZM29.276,21.663 C29.115,21.925 28.976,22.178 28.831,22.431 C34.152,23.301 38.538,26.947 40.455,31.836 C40.104,31.599 39.757,31.369 39.424,31.153 C36.728,29.395 33.391,29.253 29.592,30.774 C28.272,31.304 26.971,31.375 25.701,30.993 C23.291,30.263 20.907,30.196 18.654,30.189 C17.153,30.189 15.911,30.787 15.056,31.917 C14.841,32.197 14.721,32.532 14.697,32.877 C13.538,32.671 12.860,32.564 12.416,32.561 L12.059,32.516 C13.785,27.414 18.153,23.535 23.536,22.507 C23.436,22.334 23.347,22.167 23.240,21.991 C23.091,21.752 22.794,21.109 22.834,20.955 C22.851,20.862 22.847,20.770 22.851,20.679 C22.476,20.209 22.081,19.742 21.659,19.293 C21.304,18.883 20.890,18.526 20.505,18.158 C20.118,17.788 19.679,17.490 19.288,17.168 C18.867,16.880 18.441,16.627 18.050,16.381 C17.626,16.187 17.227,16.003 16.856,15.833 C16.466,15.719 16.110,15.614 15.795,15.523 C15.484,15.410 15.190,15.431 14.958,15.389 C14.493,15.340 14.228,15.312 14.228,15.312 C14.228,15.312 14.489,15.358 14.950,15.442 C15.176,15.501 15.465,15.499 15.763,15.634 C16.065,15.748 16.407,15.874 16.780,16.011 C17.125,16.203 17.503,16.411 17.898,16.630 C18.263,16.901 18.659,17.171 19.044,17.480 C19.402,17.822 19.803,18.138 20.152,18.523 C20.499,18.909 20.872,19.279 21.187,19.705 C21.669,20.282 22.089,20.895 22.486,21.506 C21.969,21.532 20.289,21.309 19.553,21.222 C18.735,21.115 17.854,20.925 17.004,20.629 C16.141,20.350 15.328,19.941 14.572,19.481 C13.050,18.554 11.894,17.279 11.018,16.088 C10.577,15.480 10.170,14.928 9.779,14.517 C9.591,14.339 9.402,14.131 9.267,14.033 C9.127,13.926 9.053,13.871 9.053,13.871 C9.053,13.871 9.102,13.788 9.191,13.632 C9.289,13.488 9.447,13.232 9.698,13.027 C10.186,12.571 11.051,12.106 12.074,11.875 C13.097,11.644 14.262,11.641 15.379,11.868 C16.509,12.076 17.583,12.533 18.543,13.127 C19.498,13.733 20.340,14.476 20.987,15.335 C21.649,16.175 22.134,17.100 22.439,18.003 C22.736,18.914 22.872,19.775 22.864,20.463 C22.868,20.537 22.853,20.607 22.852,20.678 C23.314,21.262 23.723,21.838 24.103,22.403 C24.846,22.291 25.608,22.227 26.382,22.227 C26.475,22.227 26.562,22.247 26.656,22.249 C26.764,21.752 26.868,21.244 26.962,20.708 C27.021,20.339 27.284,19.438 27.457,19.323 C27.555,19.243 27.629,19.150 27.714,19.062 C27.660,20.204 27.545,21.292 27.407,22.307 C27.674,22.326 27.945,22.336 28.209,22.369 C28.638,21.717 29.124,21.032 29.666,20.351 C29.669,20.443 29.666,20.534 29.682,20.629 C29.722,20.780 29.424,21.424 29.276,21.663 ZM29.629,16.043 C29.131,17.204 28.515,18.182 27.911,18.861 C27.850,18.937 27.776,18.995 27.711,19.064 C27.748,18.270 27.761,17.464 27.730,16.649 C27.735,15.931 27.634,15.216 27.571,14.513 C27.507,13.812 27.329,13.131 27.220,12.471 C27.052,11.818 26.846,11.198 26.672,10.613 C26.419,10.050 26.182,9.521 25.962,9.030 C25.674,8.580 25.409,8.166 25.175,7.800 C24.967,7.416 24.650,7.181 24.457,6.939 C24.040,6.484 23.799,6.226 23.799,6.226 C23.799,6.226 24.020,6.502 24.405,6.986 C24.578,7.238 24.870,7.489 25.048,7.884 C25.251,8.260 25.480,8.684 25.731,9.145 C25.909,9.636 26.101,10.168 26.308,10.733 C26.433,11.319 26.591,11.932 26.707,12.573 C26.765,13.224 26.889,13.887 26.901,14.575 C26.914,15.259 26.960,15.952 26.904,16.650 C26.881,17.642 26.764,18.618 26.628,19.572 C26.092,19.145 24.614,17.464 23.959,16.738 C23.237,15.918 22.527,14.962 21.939,13.929 C21.324,12.903 20.872,11.788 20.521,10.672 C19.814,8.429 19.771,6.153 19.937,4.206 C20.028,3.217 20.103,2.312 20.070,1.563 C20.036,1.222 20.030,0.854 19.982,0.638 C19.937,0.411 19.908,0.290 19.908,0.290 C19.908,0.290 20.028,0.251 20.253,0.175 C20.475,0.115 20.855,-0.004 21.284,0.012 C22.167,-0.017 23.427,0.270 24.647,0.931 C25.865,1.592 27.026,2.600 27.940,3.798 C28.882,4.986 29.556,6.377 29.993,7.803 C30.415,9.235 30.610,10.708 30.507,12.124 C30.433,13.535 30.110,14.880 29.629,16.043 Z" class="cls-1"/>
</svg>
